<svg id="font_M_xx_svg125" viewBox="0 0 195.37 279.005" width="22.407627" height="32" version="1.1" xmlns="http://www.w3.org/2000/svg" xmlns:xlink="http://www.w3.org/1999/xlink">
    <style>
        :root, .palette0 {color: currentColor;
            --color0: #dadada;
            --color1: rgba(218, 218, 218, 0);
        }
    </style>
    <g id="font_M_xx_g63" fill="var(--color0, #dadada)" transform="translate(-1584.38 -1108.78)">
        <rect id="font_M_xx_rect55" width="17.01" height="135.17" x="1584.45" y="1252.61" />
        <polygon id="font_M_xx_polygon55" points="1584.45 1196.09 1584.45 1208.1 1584.45 1247.8 1601.46 1247.8 1601.46 1225.05 1601.46 1213.04 1601.46 1206.83 1601.46 1182.82 1601.46 1135.56 1584.45 1154.06 1584.45 1165.86 1584.45 1189.88" />
        <polygon id="font_M_xx_polygon56" points="1756.78 1128.55 1773.79 1147.84 1773.79 1173.45 1773.79 1247.76 1756.78 1247.76" />
        <polygon id="font_M_xx_polygon57" points="1756.78 1303.32 1756.78 1291.64 1756.78 1253.03 1773.79 1253.03 1773.79 1275.15 1773.79 1286.83 1773.79 1292.87 1773.79 1316.23 1773.79 1388.23 1756.78 1388.23 1756.78 1332.72 1756.78 1309.36" />
        <polygon id="font_M_xx_polygon58" class="cls-13" points="1596.9 1165.64 1647.52 1110.6 1647.22 1108.78 1626.09 1108.78 1584.38 1154.13" />
        <polygon id="font_M_xx_polygon59" class="cls-13" points="1718.31 1109.24 1739.46 1109.24 1773.79 1147.86 1773.79 1160.58 1765.29 1168.2 1715.29 1111.95" />
        <polygon id="font_M_xx_polygon60" class="cls-13" points="1732.47 1109.54 1716.36 1109.21 1675.03 1247.85 1691.63 1247.85" />
        <polygon id="font_M_xx_polygon61" class="cls-13" points="1664.77 1247.85 1681.12 1247.85 1647.44 1109.54 1644.56 1109.66 1631.89 1112.78" />
        <rect id="font_M_xx_rect61" transform="rotate(-47.95 1619.7762 1152.8275)" width="69.559998" height="8.5" class="cls-13" x="1585.02" y="1148.58" />
        <rect id="font_M_xx_rect62" transform="rotate(-41.49 1741.0984 1152.8812)" width="8.5" height="63.82" class="cls-13" x="1737.01" y="1121.01" />
        <line id="font_M_xx_line62" stroke-width="8.5" stroke="currentColor" class="cls-9" stroke-miterlimit="10" x1="1626.45" x2="1639.1" y1="1124.01" y2="1127.01" />
        <line id="font_M_xx_line63" stroke-width="8.71" stroke="currentColor" class="cls-8" stroke-miterlimit="10" x1="1733.22" x2="1721.67" y1="1126.26" y2="1129.26" />
    </g>
</svg>