<svg id="font_V_xx_svg125" viewBox="0 0 164.37 278.005" width="18.919947" height="32" version="1.1" xmlns="http://www.w3.org/2000/svg" xmlns:xlink="http://www.w3.org/1999/xlink">
    <style>
        :root, .palette0 {color: currentColor;
            --color0: #dadada;
            --color1: rgba(218, 218, 218, 0);
        }
    </style>
    <g id="font_V_xx_g88" stroke-width="17.01" stroke="currentColor" fill="var(--color0, #dadada)" transform="translate(-2588.46 -428.31)" stroke-miterlimit="10">
        <line id="font_V_xx_line82" stroke-width="8.5" class="cls-4" x1="2736.04" x2="2664.25" y1="610.40997" y2="694.70001" />
        <line id="font_V_xx_line83" class="cls-6" x1="2596.98" x2="2596.98" y1="428.31" y2="567.33002" />
        <line id="font_V_xx_line84" class="cls-6" x1="2738.26" x2="2738.26" y1="428.31" y2="567.32001" />
        <g id="font_V_xx_g87" stroke-width="1" stroke="none" stroke-miterlimit="4">
            <polygon id="font_V_xx_polygon84" class="cls-1" points="2656.91 700.03 2647.98 689.39 2647.97 689.37" />
            <polygon id="font_V_xx_polygon85" points="2687.73 689.39 2729.02 640.79 2729.02 628.62 2678.01 689.45 2680.67 689.45 2680.67 689.11 2680.91 689.39 2681.33 689.39" />
            <polygon id="font_V_xx_polygon86" points="2729.02 628.62 2738.24 617.62 2746.03 624.14 2746.03 620.77 2746.03 571.1 2729.02 571.1" />
            <path id="font_V_xx_path86" d="M2678.01 689.45h-16.35v-0.34l-56.19-64.71v0-53.31h-17.01v59.66l17.01 19.59v0l33.89 39.03 14.77 17.01v0.02c0 0 7.53 0 7.53 0v-0.07h15.97l-8.08-6.78zM2647.97 689.37v0.02c0 0 8.95 10.65 8.95 10.65z" />
            <polygon id="font_V_xx_polygon87" points="2687.73 689.39 2681.33 689.39 2681.33 689.39 2680.91 689.39 2680.67 689.11 2680.67 689.45 2678.01 689.45 2669.55 699.55 2677.63 706.32 2680.67 706.32 2680.67 706.39 2680.67 706.39 2685.29 706.39 2746.03 633.96 2746.03 624.14 2738.24 617.62 2729.02 628.62 2729.02 640.79" />
        </g>
    </g>
</svg>