<svg id="glyph23_font_X_xx_svg125" viewBox="0 0 164.37 277.005" width="18.988249" height="32" version="1.1" xmlns="http://www.w3.org/2000/svg" xmlns:xlink="http://www.w3.org/1999/xlink">
    <style>
        :root, .palette0 {color: currentColor;
            --color0: #dadada;
            --color1: rgba(218, 218, 218, 0);
        }
    </style>
    <g id="glyph23_font_X_xx_g100" stroke-width="17.01" stroke="currentColor" fill="none" transform="translate(-2334.645 -717.05)" stroke-miterlimit="10">
        <g id="glyph23_font_X_xx_g98">
            <line id="glyph23_font_X_xx_line97" stroke-width="8.5" class="cls-4" x1="2348.7" x2="2404.7" y1="777.31" y2="842.79999" />
            <path id="glyph23_font_X_xx_path97" class="cls-6" d="M2343.15 717.05v77.54c9.89 11.63 36.66 43.1 44.72 52.57 7.09 0 16.22 0 26.08 0" />
            <line id="glyph23_font_X_xx_line98" stroke-width="8.5" class="cls-4" x1="2479.2" x2="2423.2" y1="777.31" y2="842.79999" />
            <path id="glyph23_font_X_xx_path98" class="cls-6" d="M2484.75 717.05v77.54c-9.89 11.63-36.66 43.1-44.72 52.57-7.09 0-16.22 0-26.08 0" />
        </g>
        <line id="glyph23_font_X_xx_line99" stroke-width="8.5" class="cls-4" x1="2479.2" x2="2423.2" y1="937.32001" y2="871.84003" />
        <path id="glyph23_font_X_xx_path99" class="cls-6" d="M2484.75 995.59v-75.54c-9.89-11.63-36.66-43.1-44.72-52.57-7.09 0-16.22 0-26.08 0" />
        <line id="glyph23_font_X_xx_line100" stroke-width="8.5" class="cls-4" x1="2348.7" x2="2404.7" y1="937.32001" y2="871.84003" />
        <path id="glyph23_font_X_xx_path100" class="cls-6" d="M2343.15 994.59v-74.54c9.89-11.63 36.66-43.1 44.72-52.57 7.09 0 16.22 0 26.08 0" />
    </g>
</svg>