<svg xmlns="http://www.w3.org/2000/svg" viewBox="0 0 195.2 350.51">
  <g>
      <path fill="#000000" d="M173.46,26.87v.15l-5.6-5.6h.15S146.59,0,146.59,0h-.29L48.96.07h-.37S.07,48.6.07,48.6h-.07v122.34h21.45v-89.66l59.77-59.77,56.34-.06,35.9,35.9v113.59h21.74V48.61l-21.74-21.74ZM21.45,66.61v-9.07L57.48,21.51h9.07l-45.1,45.1Z"/>
      <path fill="#000000" d="M173.75,177.57v91.66l-59.77,59.77-56.34.06-35.9-35.9v-115.59H0v124.33l21.74,21.74v-.15l5.6,5.6h-.15s21.42,21.42,21.42,21.42h.29l97.34-.07h.37s48.52-48.53,48.52-48.53h.07v-124.34h-21.45ZM173.75,292.97l-36.03,36.03h-9.07l45.1-45.1v9.07Z"/>
</g>
</svg>
