<svg xmlns="http://www.w3.org/2000/svg" viewBox="0 0 198.3 350.51">
  <g>
      <path fill="#000000" d="M176.85,0H51.22v.31L.1,51.43h-.1v28.34h21.45v-19.36L60.41,21.45h100.22c8.96,0,16.23,7.26,16.23,16.23v45.35l-87.91,87.91h30.33l78.91-78.91h.12V21.45c0-11.84-9.6-21.45-21.45-21.45Z"/>
      <path fill="#000000" d="M196.62,300.26v-43.89h-21.45v11.64l-59.76,59.76H44.79c-11.85,0-21.45-9.6-21.45-21.45v-39.45l89.31-89.31h-30.33L2.01,257.87h-.12v69.9c0,5.92,2.44,11.61,6.36,15.81s9.32,6.93,15.24,6.93h123.24l50.07-50.07-.18-.18ZM175.17,291.74l-36.03,36.03h-9.07l45.1-45.1v9.07Z"/>
</g>
</svg>
