<svg xmlns="http://www.w3.org/2000/svg" viewBox="0 0 198.3 350.51">
  <g>
      <path fill="#000000" d="M198.3,92.03V21.45c0-11.84-9.6-21.45-21.45-21.45H51.22v.31L.1,51.43h-.1v28.34h21.45v-19.36L60.41,21.45h100.22c8.96,0,16.23,7.26,16.23,16.23v45.35l-66.07,66.02v21.89h87.51c0-11.84-9.6-21.89-21.45-21.89h-35.74l57.07-57.02h.12Z"/>
      <path fill="#000000" d="M176.85,177.56v106.67h0v22.09c0,11.84-9.6,21.45-21.45,21.45h-70.62l-59.76-59.76v-11.64H3.57v43.89l-.18.18,50.07,50.07h123.39c11.84,0,21.45-10.9,21.45-22.74h0v-150.21h-21.45ZM61.05,327.77l-36.03-36.03v-9.07l45.1,45.1h-9.07Z"/>
</g>
</svg>
