<svg xmlns="http://www.w3.org/2000/svg" viewBox="0 0 194.91 350.51">
  <g><path fill="#000000" d="M157.26,177.57h-30.34l46.54,46.53v9.01l-55.54-55.54h-15.16l70.7,70.7v58.05c0,11.85-9.6,21.45-21.44,21.45h-70.62l-59.77-59.77v-90.43H.19v122.69l-.19.18,50.08,50.07h123.34c11.85,0,21.49-10.9,21.49-22.74v-112.55l-37.65-37.65ZM57.66,327.77l-36.03-36.03v-9.07l45.1,45.1h-9.07Z"/>
      <path fill="#000000" d="M44.51,0L0,44.51v126.43h150.63l-18.8-18.8H21.45v-74.58l56.11-56.11h95.9v19.74h21.45V0H44.51ZM21.45,62.4v-9.01l31.95-31.94h9L21.45,62.4Z"/>
</g>
</svg>
