<svg xmlns="http://www.w3.org/2000/svg" viewBox="0 0 194.91 350.51">
  <g><path fill="#000000" d="M146.19.07v-.07H21.45C9.6,0,0,9.61,0,21.45v112.55l36.94,36.94h157.78V48.96l.19-.18L146.19.07ZM45.54,149.2l-24.09-24.08v-9.01l33.09,33.09h-9ZM173.28,149.2h-103.58l-48.25-48.25v-58.05c0-11.85,9.6-21.45,21.44-21.45h70.62l59.77,59.77v67.98ZM173.28,66.55l-45.1-45.1h9.07l36.03,36.03v9.07Z"/>
      <path fill="#000000" d="M156.24,177.57H.19v123.71l-.19.18,49.06,49.05h124.4c11.85,0,21.45-9.88,21.45-21.72v-112.55l-38.67-38.67ZM57.66,328.79l-36.03-36.03v-9.07l45.1,45.1h-9.07ZM173.46,307.34c0,11.85-9.6,21.45-21.44,21.45h-70.62l-59.77-59.77v-67.98h103.58l48.25,48.25v58.05ZM173.46,234.13l-33.09-33.09h9.01l24.08,24.08v9.01Z"/>
</g>
</svg>
