<svg xmlns="http://www.w3.org/2000/svg" viewBox="0 0 194.91 350.69">
  <g><path fill="#000000" d="M146.19.07v-.07H21.45C9.6,0,0,9.61,0,21.45v112.55l37.12,37.12h30.34l-46.01-46v-9.01l55.01,55.01h15.16L21.45,100.95v-58.05c0-11.85,9.6-21.45,21.44-21.45h70.62l59.77,59.77v89.9h21.44V48.96l.19-.18L146.19.07ZM173.28,66.55l-45.1-45.1h9.07l36.03,36.03v9.07Z"/>
      <path fill="#000000" d="M43.75,177.75l19.33,19.33h110.38v74.58l-56.11,56.11H21.45v-19.74H0v42.66h148.93l45.98-45.98v-126.96H43.75ZM173.46,295.83l-31.95,31.94h-9l40.95-40.95v9.01Z"/>
</g>
</svg>
