<svg id="glyph6_font_G_xx_svg125" viewBox="0 0 156.37 277.005" width="18.064078" height="32" version="1.1" xmlns="http://www.w3.org/2000/svg" xmlns:xlink="http://www.w3.org/1999/xlink">
    <style>
        :root, .palette0 {color: currentColor;
            --color0: #dadada;
            --color1: rgba(218, 218, 218, 0);
        }
    </style>
    <g id="glyph6_font_G_xx_g51" stroke-width="17.01" stroke="currentColor" fill="none" transform="translate(-2236.305 -1602.345)" stroke-miterlimit="10">
        <path id="glyph6_font_G_xx_path48" class="cls-6" d="M2378.84 1745.64v118.59c0 3.88-3.15 7.03-7.03 7.03v0c0 0-70.41 0-93.77 0-0.34-0.38-29.58-33.78-33.16-37.86 0-20.2-0.07-88.76-0.07-88.76" />
        <line id="glyph6_font_G_xx_line48" stroke-width="8.5" class="cls-4" x1="2317.99" x2="2366.52" y1="1609.5699" y2="1663.17" />
        <line id="glyph6_font_G_xx_line49" stroke-width="8.5" class="cls-4" x1="2243.6799" x2="2294.45" y1="1808.14" y2="1867.8101" />
        <path id="glyph6_font_G_xx_path49" class="cls-6" d="M2244.83 1740.64v-114.23c0.01-8.59 6.97-15.56 15.57-15.56 22.78 0 64.18 0 79.42 0l32 35.89c0 4.96 0 10.22 0 15.7v5.03" />
        <line id="glyph6_font_G_xx_line50" class="cls-6" x1="2332.8401" x2="2387.0901" y1="1731.97" y2="1731.97" />
        <line id="glyph6_font_G_xx_line51" class="cls-6" x1="2332.8401" x2="2387.0901" y1="1753.11" y2="1753.11" />
    </g>
</svg>