<svg id="glyph16_font_Q_xx_svg125" viewBox="0 0 182.37 277.005" width="21.067634" height="32" version="1.1" xmlns="http://www.w3.org/2000/svg" xmlns:xlink="http://www.w3.org/1999/xlink">
    <style>
        :root, .palette0 {color: currentColor;
            --color0: #dadada;
            --color1: rgba(218, 218, 218, 0);
        }
    </style>
    <g id="glyph16_font_Q_xx_g78" transform="translate(-2345.865 -1270.185)">
        <g id="glyph16_font_Q_xx_g77" stroke-width="17.01" stroke="currentColor" fill="none" stroke-miterlimit="10">
            <line id="glyph16_font_Q_xx_line75" stroke-width="8.5" class="cls-4" x1="2413.95" x2="2360.23" y1="1277.4" y2="1331.3" />
            <line id="glyph16_font_Q_xx_line76" stroke-width="8.5" class="cls-4" x1="2495.1101" x2="2438.8999" y1="1477.09" y2="1537.1" />
            <path id="glyph16_font_Q_xx_path76" class="cls-6" d="M2354.37 1412.48v114.15c0 7.14 5.78 12.92 12.92 12.92 21.3 0 63.59 0 85.39 0 3.51 0 6.86-1.42 9.3-3.95 7.05-7.32 22.09-22.91 29.29-30.38 2.32-2.41 3.61-5.62 3.61-8.96v-83.5" />
            <path id="glyph16_font_Q_xx_path77" class="cls-6" d="M2494.93 1408.69v-113.36c0-9.19-8.24-16.64-18.42-16.64-25.45 0-70.11 0-86.71 0l-35.42 36.09c0 4.99 0 10.27 0 15.79v77.91" />
        </g>
        <polygon id="glyph16_font_Q_xx_polygon77" fill="var(--color0, #dadada)" points="2500.2 1547.21 2522.02 1547.21 2522.52 1546.75 2489.33 1511.04 2477.12 1522.38" />
    </g>
</svg>