<svg id="font_S_xx_svg125" viewBox="0 0 163.37 278.005" width="18.804842" height="32" version="1.1" xmlns="http://www.w3.org/2000/svg" xmlns:xlink="http://www.w3.org/1999/xlink">
    <style>
        :root, .palette0 {color: currentColor;
            --color0: #dadada;
            --color1: rgba(218, 218, 218, 0);
        }
    </style>
    <g id="font_S_xx_g82" fill="var(--color0, #dadada)" transform="translate(-991.35 -1192.38)">
        <polygon id="font_S_xx_polygon78" points="1130.75 1255.7 1132.33 1255.7 1137.56 1250.49 1083.84 1196.58 1077.82 1202.59" />
        <line id="font_S_xx_line78" stroke-width="8.5" stroke="currentColor" class="cls-4" stroke-miterlimit="10" x1="999.66998" x2="1055.88" y1="1399.27" y2="1459.28" />
        <path id="font_S_xx_path78" d="M1142.96 1417.28l-11.06-11.05v42.59c0 2.44-1.98 4.42-4.41 4.42h-85.4c0 0 0 0 0 0-1.21 0-2.33-0.48-3.17-1.35l-29.29-30.37c-0.79-0.82-1.23-1.91-1.23-3.06v-22.53h-17.01v22.53c0 5.58 2.13 10.86 6 14.87l29.29 30.37c4.01 4.16 9.63 6.55 15.41 6.55h85.4c11.81 0 21.42-9.61 21.42-21.43v-37.55z" />
        <path id="font_S_xx_path79" d="M1148.91 1233.49l-40.36-41.11h-90.28c-14.85 0-26.92 11.28-26.92 25.15v35.71l7.22-7.31 9.79 9.78v-38.18c0-4.49 4.45-8.14 9.92-8.14h83.14c0 0 30.49 31.06 30.49 31.06v15.26h17.01z" />
        <polygon id="font_S_xx_polygon79" points="1081.08 1328.36 1008.35 1255.7 1008.35 1282.79 1053.96 1328.36" />
        <polygon id="font_S_xx_polygon80" points="1131.9 1406.23 1131.9 1379.14 1085.08 1332.36 1057.97 1332.36" />
        <polygon id="font_S_xx_polygon81" points="1131.9 1406.23 1142.96 1417.28 1148.91 1411.26 1148.91 1396.13 1131.9 1379.14" />
        <polygon id="font_S_xx_polygon82" points="1008.35 1282.79 1008.35 1255.7 998.57 1245.92 991.35 1253.22 991.35 1265.79" />
    </g>
</svg>