<svg id="font_Z_xx_svg125" viewBox="0 0 175.37 280.005" width="20.041928" height="32" version="1.1" xmlns="http://www.w3.org/2000/svg" xmlns:xlink="http://www.w3.org/1999/xlink">
    <style>
        :root, .palette0 {color: currentColor;
            --color0: #dadada;
            --color1: rgba(218, 218, 218, 0);
        }
    </style>
    <g id="font_Z_xx_g103" stroke-width="8.56" stroke="currentColor" fill="var(--color0, #dadada)" transform="translate(-1908.67 -1531.7417)" stroke-miterlimit="10">
        <g id="font_Z_xx_g102" stroke-width="1" stroke="none" stroke-miterlimit="4">
            <path id="font_Z_xx_path101" d="M2078.13 1582.59l-5.89-6.44c0 0-28.95-31.68-37.66-41.21l-2.53-2.77h-108.91v17.01h101.41c8.06 8.82 23.79 26.03 31.15 34.09-11.1 13.69-40.5 49.91-69.58 85.74h21.9c33.21-40.92 64.37-79.32 65.52-80.73z" />
            <path id="font_Z_xx_path102" d="M1914.88 1756.8l-6.21 7.65 4.94 5.41c7.63 8.36 29.07 31.82 35.52 38.87l2.53 2.77h3.75c23.17 0 108.58 0 108.58 0v-17.01c0 0-77.41 0-104.83 0-6.74-7.37-19.73-21.59-28.05-30.7 10.01-12.33 41.84-51.54 72.88-89.79h-21.91c-34.07 41.98-66.51 81.95-67.2 82.8z" />
        </g>
        <line id="font_Z_xx_line102" class="cls-3" x1="2001.03" x2="2051.47" y1="1534.62" y2="1590.13" />
        <line id="font_Z_xx_line103" class="cls-3" x1="1924.79" x2="1975.22" y1="1745.42" y2="1800.9301" />
    </g>
</svg>